<svg xmlns="http://www.w3.org/2000/svg" width="980" height="520" viewBox="0 0 980 520">
<rect width="100%" height="100%" fill="#ffffff"/>
<text x="490.0" y="34.0" font-family="Inter, Arial, sans-serif" font-size="22" font-weight="700" text-anchor="middle" fill="#111827">Router comparison across onion layouts</text>
<text x="490.0" y="58.0" font-family="Inter, Arial, sans-serif" font-size="13" font-weight="400" text-anchor="middle" fill="#111827">Mean soups delivered over 20 deterministic evaluation episodes</text>
<line x1="90" y1="420.0" x2="950" y2="420.0" stroke="#e5e7eb"/>
<text x="78.0" y="424.0" font-family="Inter, Arial, sans-serif" font-size="12" font-weight="400" text-anchor="end" fill="#111827">0</text>
<line x1="90" y1="370.0" x2="950" y2="370.0" stroke="#e5e7eb"/>
<text x="78.0" y="374.0" font-family="Inter, Arial, sans-serif" font-size="12" font-weight="400" text-anchor="end" fill="#111827">2</text>
<line x1="90" y1="320.0" x2="950" y2="320.0" stroke="#e5e7eb"/>
<text x="78.0" y="324.0" font-family="Inter, Arial, sans-serif" font-size="12" font-weight="400" text-anchor="end" fill="#111827">4</text>
<line x1="90" y1="270.0" x2="950" y2="270.0" stroke="#e5e7eb"/>
<text x="78.0" y="274.0" font-family="Inter, Arial, sans-serif" font-size="12" font-weight="400" text-anchor="end" fill="#111827">6</text>
<line x1="90" y1="220.0" x2="950" y2="220.0" stroke="#e5e7eb"/>
<text x="78.0" y="224.0" font-family="Inter, Arial, sans-serif" font-size="12" font-weight="400" text-anchor="end" fill="#111827">8</text>
<line x1="90" y1="170.0" x2="950" y2="170.0" stroke="#e5e7eb"/>
<text x="78.0" y="174.0" font-family="Inter, Arial, sans-serif" font-size="12" font-weight="400" text-anchor="end" fill="#111827">10</text>
<line x1="90" y1="120.0" x2="950" y2="120.0" stroke="#e5e7eb"/>
<text x="78.0" y="124.0" font-family="Inter, Arial, sans-serif" font-size="12" font-weight="400" text-anchor="end" fill="#111827">12</text>
<line x1="90" y1="95" x2="90" y2="420" stroke="#111827"/>
<line x1="90" y1="420" x2="950" y2="420" stroke="#111827"/>
<text x="176.0" y="452.0" font-family="Inter, Arial, sans-serif" font-size="12" font-weight="400" text-anchor="middle" fill="#111827">simple</text>
<rect x="142.0" y="181.2" width="20.0" height="238.8" rx="2" fill="#3b82f6"/>
<rect x="166.0" y="181.2" width="20.0" height="238.8" rx="2" fill="#10b981"/>
<rect x="190.0" y="181.2" width="20.0" height="238.8" rx="2" fill="#f59e0b"/>
<text x="348.0" y="452.0" font-family="Inter, Arial, sans-serif" font-size="12" font-weight="400" text-anchor="middle" fill="#111827">random0</text>
<rect x="314.0" y="198.8" width="20.0" height="221.2" rx="2" fill="#3b82f6"/>
<rect x="338.0" y="198.8" width="20.0" height="221.2" rx="2" fill="#10b981"/>
<rect x="362.0" y="198.8" width="20.0" height="221.2" rx="2" fill="#f59e0b"/>
<text x="520.0" y="452.0" font-family="Inter, Arial, sans-serif" font-size="12" font-weight="400" text-anchor="middle" fill="#111827">small_corridor</text>
<rect x="486.0" y="410.0" width="20.0" height="10" fill="#d1d5db"/>
<text x="496.0" y="404.0" font-family="Inter, Arial, sans-serif" font-size="10" font-weight="400" text-anchor="middle" fill="#111827">skip</text>
<rect x="510.0" y="372.5" width="20.0" height="47.5" rx="2" fill="#10b981"/>
<text x="520.0" y="366.5" font-family="Inter, Arial, sans-serif" font-size="10" font-weight="400" text-anchor="middle" fill="#111827">1.90</text>
<rect x="534.0" y="345.0" width="20.0" height="75.0" rx="2" fill="#f59e0b"/>
<text x="544.0" y="339.0" font-family="Inter, Arial, sans-serif" font-size="10" font-weight="400" text-anchor="middle" fill="#111827">3.00</text>
<text x="692.0" y="452.0" font-family="Inter, Arial, sans-serif" font-size="12" font-weight="400" text-anchor="middle" fill="#111827">random1</text>
<rect x="658.0" y="275.0" width="20.0" height="145.0" rx="2" fill="#3b82f6"/>
<rect x="682.0" y="275.0" width="20.0" height="145.0" rx="2" fill="#10b981"/>
<rect x="706.0" y="275.0" width="20.0" height="145.0" rx="2" fill="#f59e0b"/>
<text x="864.0" y="452.0" font-family="Inter, Arial, sans-serif" font-size="12" font-weight="400" text-anchor="middle" fill="#111827">unident_s</text>
<rect x="830.0" y="102.5" width="20.0" height="317.5" rx="2" fill="#3b82f6"/>
<rect x="854.0" y="102.5" width="20.0" height="317.5" rx="2" fill="#10b981"/>
<rect x="878.0" y="102.5" width="20.0" height="317.5" rx="2" fill="#f59e0b"/>
<rect x="190" y="470" width="14" height="14" fill="#3b82f6" rx="2"/>
<text x="212.0" y="482.0" font-family="Inter, Arial, sans-serif" font-size="12" font-weight="400" text-anchor="start" fill="#111827">PPO-only router</text>
<rect x="420" y="470" width="14" height="14" fill="#10b981" rx="2"/>
<text x="442.0" y="482.0" font-family="Inter, Arial, sans-serif" font-size="12" font-weight="400" text-anchor="start" fill="#111827">3-cycle BC router</text>
<rect x="650" y="470" width="14" height="14" fill="#f59e0b" rx="2"/>
<text x="672.0" y="482.0" font-family="Inter, Arial, sans-serif" font-size="12" font-weight="400" text-anchor="start" fill="#111827">Perturbed BC+PPO router</text>
<text x="950.0" y="508.0" font-family="Inter, Arial, sans-serif" font-size="10" font-weight="400" text-anchor="end" fill="#111827">Source: outputs/runs/router_*/metrics/router_eval.csv</text>
</svg>
